
<svg id="chat-bot" xmlns="http://www.w3.org/2000/svg" viewBox="0 0 100 100" class="w-auto h-100">
  <g id="base">
    <path id="head" class="cls-2" d="M83.39,43.34c-.57,0-1.12.12-1.64.32h0c-3.81-7.94-12.62-14-23.51-16.03h0c0-.08.02-.16.02-.24,0-3.05-3.1-5.57-7.14-6.01v-7.5c1.6-.53,2.76-2.04,2.76-3.83,0-2.23-1.81-4.04-4.04-4.04s-4.04,1.81-4.04,4.04c0,1.79,1.16,3.3,2.76,3.83v7.5c-4.04.45-7.14,2.96-7.14,6.01,0,.12.02.24.03.36h0c-10.83,2.17-19.56,8.28-23.41,16.16h0c-.68-.36-1.42-.57-2.19-.57-3.37,0-6.09,3.77-6.09,8.41s2.72,8.41,6.09,8.41c.46,0,.9-.08,1.33-.21h0c4.02,10.83,17.12,18.65,32.6,18.55-.48,6.67-6.62,15.1-7.02,15.64.75-.88,37.61-22.44,39.55-34.13h0c.35.09.72.14,1.09.14,3.36,0,6.09-3.76,6.09-8.41s-2.73-8.41-6.09-8.41h0ZM26.37,53.53v-1.66c0-6.33,5.18-11.51,11.51-11.51h23.9c6.33,0,11.51,5.18,11.51,11.51v1.66c0,6.33-5.18,11.51-11.51,11.51h-23.9c-6.33,0-11.51-5.18-11.51-11.51Z"/>
  </g>
  <g id="foreground">
    <circle id="eye-right" class="cls-2" cx="39.01" cy="52.49" r="3.65"/>
    <circle id="eye_left" data-name="eye left" class="cls-2" cx="60.67" cy="52.49" r="3.65"/>
  </g>
</svg>
