<svg xmlns="http://www.w3.org/2000/svg" id="chat-bot" viewBox="0 0 100 100" class="w-auto h-100" >
<g id="base">
<path id="head" class="cls-2" d="M 97.96 45.05 C 96.7 42.9 94.78 41.72 92.15 41.07 C 88.46 27.22 78.21 22.01 61.69 20.58 C 59.9 18.59 57.0 17.51 52.32 17.25 L 51.45 10.91 C 53.81 10.26 55.54 8.11 55.54 5.56 C 55.54 2.49 53.02 0.0 49.91 0.0 C 46.81 0.0 44.29 2.49 44.29 5.56 C 44.29 8.11 46.01 10.25 48.37 10.91 L 47.51 17.25 C 43.44 17.48 40.72 18.32 38.9 19.84 C 38.62 20.07 38.37 20.32 38.13 20.58 C 33.64 20.97 29.6 21.64 26.04 22.69 C 25.74 22.78 25.44 22.87 25.13 22.97 C 22.14 23.92 19.49 25.16 17.2 26.76 C 13.99 28.99 11.47 31.9 9.65 35.66 C 8.86 37.3 8.2 39.1 7.68 41.07 C 2.41 42.37 0.0 45.8 0.0 54.79 C 0.0 61.76 1.45 65.38 4.55 67.27 C 5.45 67.81 6.49 68.21 7.68 68.51 C 7.69 68.56 7.71 68.62 7.73 68.68 C 7.78 68.89 7.84 69.1 7.9 69.31 C 7.93 69.4 7.95 69.49 7.98 69.59 C 8.07 69.88 8.16 70.16 8.26 70.45 C 8.28 70.52 8.3 70.58 8.32 70.65 C 8.4 70.87 8.47 71.09 8.55 71.3 C 8.59 71.4 8.63 71.51 8.67 71.61 C 8.73 71.78 8.8 71.95 8.87 72.12 C 8.91 72.24 8.96 72.35 9.0 72.46 C 9.07 72.62 9.13 72.77 9.2 72.93 C 9.25 73.04 9.3 73.15 9.35 73.26 C 9.42 73.41 9.49 73.56 9.56 73.72 C 9.61 73.82 9.66 73.93 9.71 74.03 C 9.79 74.19 9.86 74.34 9.94 74.49 C 9.99 74.59 10.04 74.68 10.09 74.78 C 10.18 74.95 10.27 75.12 10.37 75.28 C 10.41 75.36 10.45 75.43 10.49 75.5 C 10.62 75.74 10.76 75.97 10.9 76.19 C 10.94 76.26 10.99 76.33 11.03 76.4 C 11.13 76.56 11.23 76.71 11.34 76.87 C 11.4 76.96 11.46 77.05 11.52 77.13 C 11.61 77.26 11.7 77.39 11.79 77.52 C 11.86 77.61 11.93 77.71 12.0 77.8 C 12.09 77.92 12.18 78.04 12.27 78.16 C 12.34 78.25 12.41 78.34 12.48 78.43 C 12.58 78.55 12.67 78.66 12.77 78.78 C 12.84 78.86 12.91 78.95 12.99 79.04 C 13.09 79.15 13.19 79.27 13.29 79.38 C 13.37 79.46 13.44 79.54 13.51 79.62 C 13.63 79.75 13.75 79.88 13.88 80.01 C 13.94 80.07 13.99 80.12 14.05 80.18 C 14.22 80.36 14.41 80.54 14.59 80.71 C 14.66 80.77 14.73 80.84 14.8 80.9 C 14.92 81.01 15.04 81.12 15.17 81.23 C 15.25 81.3 15.34 81.38 15.42 81.45 C 15.53 81.54 15.65 81.64 15.76 81.73 C 15.85 81.81 15.94 81.88 16.03 81.95 C 16.15 82.04 16.26 82.13 16.38 82.22 C 16.47 82.29 16.57 82.36 16.66 82.43 C 16.78 82.52 16.9 82.6 17.02 82.69 C 17.11 82.76 17.21 82.82 17.3 82.89 C 17.43 82.97 17.56 83.06 17.68 83.14 C 17.78 83.2 17.87 83.27 17.97 83.33 C 18.12 83.42 18.27 83.52 18.42 83.61 C 18.5 83.66 18.58 83.71 18.65 83.75 C 18.87 83.88 19.09 84.01 19.31 84.14 C 19.41 84.19 19.51 84.24 19.6 84.29 C 19.74 84.37 19.89 84.44 20.03 84.52 C 20.14 84.57 20.25 84.63 20.36 84.69 C 20.49 84.75 20.63 84.82 20.76 84.89 C 20.88 84.94 20.99 84.99 21.11 85.05 C 21.24 85.11 21.38 85.17 21.52 85.23 C 21.63 85.29 21.76 85.34 21.88 85.39 C 22.01 85.45 22.15 85.51 22.29 85.57 C 22.41 85.62 22.53 85.67 22.66 85.72 C 22.8 85.78 22.95 85.84 23.1 85.9 C 23.22 85.94 23.33 85.99 23.45 86.03 C 23.63 86.1 23.82 86.16 24.0 86.23 C 24.16 86.28 24.32 86.34 24.48 86.39 C 24.67 86.46 24.87 86.53 25.07 86.59 C 25.19 86.63 25.32 86.67 25.45 86.71 C 25.6 86.76 25.76 86.81 25.92 86.85 C 26.05 86.9 26.19 86.93 26.33 86.97 C 26.48 87.02 26.63 87.06 26.79 87.1 C 26.93 87.14 27.07 87.18 27.22 87.22 C 27.37 87.26 27.52 87.3 27.68 87.34 C 27.83 87.37 27.97 87.41 28.12 87.45 C 28.27 87.48 28.43 87.52 28.59 87.56 C 28.74 87.59 28.88 87.63 29.03 87.66 C 29.2 87.7 29.37 87.73 29.53 87.77 C 29.68 87.8 29.82 87.83 29.97 87.86 C 30.17 87.9 30.38 87.94 30.6 87.98 C 30.82 88.03 31.05 88.07 31.27 88.11 C 31.46 88.14 31.65 88.18 31.84 88.21 C 32.0 88.24 32.16 88.26 32.32 88.29 C 32.49 88.32 32.66 88.34 32.83 88.37 C 32.99 88.4 33.16 88.42 33.33 88.44 C 33.49 88.47 33.66 88.49 33.83 88.52 C 34.0 88.54 34.17 88.56 34.34 88.59 C 34.51 88.61 34.68 88.63 34.85 88.65 C 35.03 88.67 35.2 88.7 35.38 88.72 C 35.55 88.74 35.73 88.76 35.9 88.78 C 36.08 88.8 36.25 88.82 36.43 88.84 C 36.61 88.85 36.79 88.87 36.97 88.89 C 37.15 88.91 37.32 88.93 37.5 88.94 C 37.72 88.96 37.94 88.98 38.16 89.0 C 38.46 89.03 38.76 89.05 39.06 89.07 C 39.23 89.09 39.39 89.1 39.55 89.11 H 39.56 V 99.91 C 39.56 99.91 61.19 92.21 76.97 85.8 C 80.83 84.28 84.03 82.18 86.56 79.35 C 89.1 76.52 90.96 72.96 92.15 68.51 C 97.42 67.21 99.83 63.78 99.83 54.79 C 99.83 50.29 99.22 47.19 97.96 45.05 Z M 81.15 68.39 C 80.1 71.0 78.65 72.88 76.59 74.31 C 71.93 77.54 63.46 79.05 49.91 79.05 C 36.37 79.05 27.89 77.54 23.24 74.31 C 21.17 72.88 19.72 71.0 18.67 68.39 C 17.32 65.05 16.64 60.47 16.64 54.79 C 16.64 49.11 17.32 44.53 18.67 41.19 C 19.72 38.58 21.17 36.7 23.24 35.27 C 27.89 32.04 36.37 30.53 49.91 30.53 C 63.46 30.53 71.93 32.04 76.59 35.27 C 78.65 36.7 80.1 38.58 81.15 41.19 C 82.5 44.53 83.19 49.11 83.19 54.79 C 83.19 60.47 82.5 65.05 81.15 68.39 Z"/>
</g>
<g id="foreground">
<path id="eye-right" class="cls-2" d="M 68.8 54.79 C 68.8 58.04 68.05 61.22 64.53 61.22 C 61.02 61.22 60.27 58.04 60.27 54.79 C 60.27 51.54 61.02 48.36 64.53 48.36 C 68.05 48.36 68.8 51.54 68.8 54.79 Z"/>
<path id="eye-left" class="cls-2" d="M 39.56 54.79 C 39.56 58.04 38.8 61.22 35.29 61.22 C 31.78 61.22 31.02 58.04 31.02 54.79 C 31.02 51.54 31.78 48.36 35.29 48.36 C 38.8 48.36 39.56 51.54 39.56 54.79 Z"/>
</g>
</svg>
