<?xml version="1.0" encoding="UTF-8"?>
<svg width="1024px" height="103px" viewBox="0 0 1024 103" version="1.1" xmlns="http://www.w3.org/2000/svg" xmlns:xlink="http://www.w3.org/1999/xlink">
    <!-- Generator: Sketch 47.1 (45422) - http://www.bohemiancoding.com/sketch -->
    <title>ATI 5-stripe logo</title>
    <desc>Created with Sketch.</desc>
    <defs>
        <polygon id="path-1" points="69.238 73 0.522900016 73 0.522900016 0.475126108 69.238 0.475126108 69.238 73"></polygon>
        <polygon id="path-3" points="68.7644 73 0.0492497435 73 0.0492497435 0.475126108 68.7644 0.475126108"></polygon>
        <polygon id="path-5" points="69.2546 73 0.540523737 73 0.540523737 0.475126108 69.2546 0.475126108 69.2546 73"></polygon>
    </defs>
    <g id="Page-1" stroke="none" stroke-width="1" fill="none" fill-rule="evenodd">
        <g id="Mobile" transform="translate(0.000000, -4.000000)">
            <g id="ATI-5-stripe-logo" transform="translate(-2.000000, 3.000000)">
                <polygon id="Fill-1" fill="#000000" points="0 102.778 82.79 102.778 114.18 79.911 120.52 102.778 167.8 102.778 135.507 5.135"></polygon>
                <polygon id="Fill-2" fill="#000000" points="144 4.9993 156.91 44.9323 168.544 44.9323 160.274 54.6123 176.158 102.9073 224.854 44.9323 234.546 44.9323 268.257 4.9993"></polygon>
                <g id="Group-52" transform="translate(195.000000, 0.228000)">
                    <path d="M0.1051,102.5497 L54.5221,37.4067 C51.7941,51.2737 57.7971,64.2067 69.4311,73.8867 C81.2431,83.6857 97.2861,88.0537 110.7971,81.4127 L93.3781,102.5497 L0.1051,102.5497 Z" id="Fill-3" fill="#000000"></path>
                    <path d="M76.6608,12.4565 L118.4528,12.4565 C112.6038,8.1255 105.3918,5.5335 97.5578,5.5335 C89.7188,5.5335 82.5078,8.1255 76.6608,12.4565" id="Fill-5" fill="#DF3227"></path>
                    <path d="M97.5577,75.9531 C105.7357,75.9531 113.2427,73.1321 119.2207,68.4501 L75.8947,68.4501 C81.8687,73.1321 89.3747,75.9531 97.5577,75.9531" id="Fill-7" fill="#DF3227"></path>
                    <path d="M68.1862,60.1103 L126.9352,60.1103 C128.4752,57.7783 129.7222,55.2403 130.6782,52.5663 L64.4452,52.5663 C65.4012,55.2403 66.6452,57.7783 68.1862,60.1103" id="Fill-9" fill="#DF3227"></path>
                    <path d="M62.3658,40.7358 C62.3658,41.9188 62.4288,43.0868 62.5428,44.2438 L132.5838,44.2438 C132.6978,43.0868 132.7608,41.9188 132.7608,40.7358 C132.7608,39.3608 132.6618,38.0148 132.5088,36.6808 L62.6168,36.6808 C62.4638,38.0148 62.3658,39.3608 62.3658,40.7358" id="Fill-11" fill="#DF3227"></path>
                    <path d="M64.6534,28.3408 L130.4704,28.3408 C129.4564,25.6548 128.1494,23.1138 126.5424,20.7858 L68.5774,20.7858 C66.9714,23.1138 65.6654,25.6548 64.6534,28.3408" id="Fill-13" fill="#DF3227"></path>
                    <path d="M182.0006,64.0322 L199.0006,22.8122 L199.2706,22.8122 L216.8206,64.0322 L182.0006,64.0322 Z M245.3906,99.8122 C244.1706,98.4522 243.3506,97.2222 241.9906,94.5032 L198.8706,0.7722 L198.6006,0.7722 L157.5106,96.9522 C156.9706,98.1732 156.1506,99.1332 155.0606,99.8122 L170.2906,99.8122 C169.8906,99.2722 169.2106,98.5932 169.2106,97.6332 C169.2106,97.2222 169.7506,96.0032 170.4306,94.3722 L179.1406,73.2822 L221.0406,73.2822 L229.7506,94.3722 C230.4306,96.0032 230.9706,97.2222 230.9706,97.6332 C230.9706,98.5932 230.2906,99.2722 229.8906,99.8122 L245.3906,99.8122 Z" id="Fill-15" fill="#000000"></path>
                    <path d="M246.7506,99.8115 C248.9276,98.7245 249.2006,95.4605 249.2006,90.1545 L249.2006,9.0685 C249.2006,6.4835 249.0646,4.1705 247.0256,2.9465 L258.7256,2.9465 L258.7256,94.2335 C258.7256,97.0895 259.6756,98.9975 261.1716,99.8115 L246.7506,99.8115 Z" id="Fill-17" fill="#000000"></path>
                    <path d="M270.1427,99.8115 C272.3197,98.7245 272.5927,95.4605 272.5927,90.1545 L272.5927,9.0685 C272.5927,6.4835 272.4557,4.1705 270.4127,2.9465 L282.1137,2.9465 L282.1137,94.2335 C282.1137,97.0895 283.0667,98.9975 284.5627,99.8115 L270.1427,99.8115 Z" id="Fill-19" fill="#000000"></path>
                    <path d="M293.5333,99.8115 C295.7103,98.7245 295.9803,95.4605 295.9803,90.1545 L295.9803,39.2695 C295.9803,36.6865 295.8473,34.3735 293.8033,33.1515 L305.5013,33.1515 L305.5013,94.2335 C305.5013,97.0895 306.4583,98.9975 307.9553,99.8115 L293.5333,99.8115 Z" id="Fill-21" fill="#000000"></path>
                    <path d="M306.8644,16.5517 C306.8644,19.9527 304.0094,22.6747 300.7424,22.6747 C297.4764,22.6747 294.6194,19.9527 294.6194,16.5517 C294.6194,13.1507 297.4764,10.4277 300.7424,10.4277 C304.0094,10.4277 306.8644,13.1507 306.8644,16.5517" id="Fill-23" fill="#000000"></path>
                    <path d="M755.0099,99.8115 C757.1879,98.7245 757.4529,95.4605 757.4529,90.1545 L757.4529,39.2695 C757.4529,36.6865 757.3209,34.3735 755.2809,33.1515 L766.9799,33.1515 L766.9799,94.2335 C766.9799,97.0895 767.9329,98.9975 769.4329,99.8115 L755.0099,99.8115 Z" id="Fill-25" fill="#000000"></path>
                    <path d="M768.337,16.5517 C768.337,19.9527 765.486,22.6747 762.22,22.6747 C758.955,22.6747 756.095,19.9527 756.095,16.5517 C756.095,13.1507 758.955,10.4277 762.22,10.4277 C765.486,10.4277 768.337,13.1507 768.337,16.5517" id="Fill-27" fill="#000000"></path>
                    <path d="M443.0812,82.4023 C438.0512,85.1223 431.3812,92.7423 419.1312,92.7423 C404.7112,92.7423 392.3312,81.0323 392.3312,66.8923 C392.3312,52.3323 402.8102,40.2223 418.0512,40.2223 C431.2402,40.2223 436.0012,44.0323 443.0812,51.1123 L443.0812,82.4023 Z M452.6012,77.9023 L452.6012,2.9423 L440.6312,2.9423 C442.5412,4.3023 443.0812,5.9423 443.0812,7.4323 L443.0812,40.6223 L442.5412,40.9023 C437.3602,33.0123 429.4712,30.9723 419.9502,30.9723 C400.0912,30.9723 382.5412,45.3923 382.5412,65.9323 C382.5412,86.2023 398.3202,101.9923 419.0012,101.9923 C430.9712,101.9923 436.5412,96.4123 446.2112,90.9723 C448.6602,89.3323 451.2402,87.7023 454.1012,87.1623 C452.6012,85.9323 452.6012,81.1733 452.6012,77.9023 L452.6012,77.9023 Z" id="Fill-29" fill="#000000"></path>
                    <path d="M527.212,95.0536 C527.212,96.9536 527.895,98.5896 528.848,99.8116 L515.242,99.8116 C516.195,98.5896 516.874,96.9536 516.874,95.0536 L516.874,12.1976 L501.5,12.1976 C498.644,12.1976 496.873,12.7406 495.24,14.9186 L495.24,2.9466 L548.849,2.9466 L548.849,14.9186 C547.216,12.7406 545.442,12.1976 542.592,12.1976 L527.212,12.1976 L527.212,95.0536 Z" id="Fill-31" fill="#000000"></path>
                    <path d="M612.0743,100.1415 C614.2533,99.0555 614.5263,95.7905 614.5263,90.4855 L614.5263,9.4005 C614.5263,6.8155 614.3853,4.5025 612.3453,3.2785 L624.0513,3.2785 L624.0513,94.5695 C624.0513,97.4265 624.9983,99.3325 626.4973,100.1415 L612.0743,100.1415 Z" id="Fill-33" fill="#000000"></path>
                    <path d="M739.2755,44.9814 C736.0175,42.2604 731.6645,40.2224 727.1725,40.2224 C721.3205,40.2224 716.4215,42.2604 716.4215,48.7944 C716.4215,64.0294 745.6735,56.4154 745.6735,81.4484 C745.6735,93.2834 736.2835,101.9894 724.5875,101.9894 C719.5525,101.9894 715.8805,101.3104 713.1625,100.6264 C710.4355,100.0834 708.5355,99.2684 707.0355,99.2684 C706.2145,99.2684 704.9965,100.0834 704.4505,100.9034 L704.3175,100.9034 L704.3175,84.5764 C708.8005,89.4754 715.0605,92.7404 721.7335,92.7404 C728.8045,92.7404 735.8765,90.6974 735.8765,82.5344 C735.8765,63.4864 706.6295,72.5994 706.6295,48.7944 C706.6295,37.7754 714.9275,30.9704 725.8115,30.9704 C729.6195,30.9704 733.9785,32.3314 736.2835,32.3314 C737.2365,32.3314 738.5965,32.0594 739.2755,31.2444 L739.2755,44.9814 Z" id="Fill-35" fill="#000000"></path>
                    <path d="M814.3458,44.9814 C811.0778,42.2604 806.7288,40.2224 802.2338,40.2224 C796.3898,40.2224 791.4908,42.2604 791.4908,48.7944 C791.4908,64.0294 820.7388,56.4154 820.7388,81.4484 C820.7388,93.2834 811.3528,101.9894 799.6568,101.9894 C794.6218,101.9894 790.9448,101.3104 788.2238,100.6264 C785.5048,100.0834 783.5988,99.2684 782.1058,99.2684 C781.2848,99.2684 780.0658,100.0834 779.5198,100.9034 L779.3778,100.9034 L779.3778,84.5764 C783.8728,89.4754 790.1298,92.7404 796.7968,92.7404 C803.8678,92.7404 810.9458,90.6974 810.9458,82.5344 C810.9458,63.4864 781.6928,72.5994 781.6928,48.7944 C781.6928,37.7754 789.9918,30.9704 800.8818,30.9704 C804.6888,30.9704 809.0388,32.3314 811.3528,32.3314 C812.3068,32.3314 813.6668,32.0594 814.3458,31.2444 L814.3458,44.9814 Z" id="Fill-37" fill="#000000"></path>
                    <g id="Group-41" transform="translate(313.000000, 30.000000)">
                        <mask id="mask-2" fill="white">
                            <use xlink:href="#path-1"></use>
                        </mask>
                        <g id="Clip-40"></g>
                        <path d="M20.837,16.4457 C10.103,25.4527 7.513,37.3937 12.534,49.5187 L54.537,14.2737 C43.902,6.6807 31.259,7.6987 20.837,16.4457 M69.238,14.0137 L18.375,56.6957 C29.038,66.2167 43.755,65.7677 55.219,56.1467 C58.359,53.5137 61.278,50.7987 63.504,47.6577 L63.504,61.2167 C62.731,61.9127 61.94,62.5867 61.163,63.2357 C45.429,76.4407 22.507,76.8467 9.039,60.7977 C-4.517,44.6487 -1.369,22.9977 14.788,9.4467 C31.773,-4.8113 54.779,-0.6703 65.451,12.0427 C66.588,13.3997 68.013,13.6177 69.238,14.0137" id="Fill-39" fill="#000000" mask="url(#mask-2)"></path>
                    </g>
                    <g id="Group-44" transform="translate(537.000000, 30.000000)">
                        <mask id="mask-4" fill="white">
                            <use xlink:href="#path-3"></use>
                        </mask>
                        <g id="Clip-43"></g>
                        <path d="M20.3634,16.4457 C9.6324,25.4527 7.0384,37.3937 12.0634,49.5187 L54.0634,14.2737 C43.4324,6.6807 30.7904,7.6987 20.3634,16.4457 M68.7644,14.0137 L17.9074,56.6957 C28.5644,66.2167 43.2864,65.7677 54.7454,56.1467 C57.8854,53.5137 60.8044,50.7987 63.0364,47.6577 L63.0364,61.2167 C62.2594,61.9127 61.4684,62.5867 60.6924,63.2357 C44.9534,76.4407 22.0334,76.8467 8.5694,60.7977 C-4.9916,44.6487 -1.8426,22.9977 14.3094,9.4467 C31.2984,-4.8113 54.3084,-0.6703 64.9804,12.0427 C66.1174,13.3997 67.5434,13.6177 68.7644,14.0137" id="Fill-42" fill="#000000" mask="url(#mask-4)"></path>
                    </g>
                    <g id="Group-47" transform="translate(633.000000, 30.000000)">
                        <mask id="mask-6" fill="white">
                            <use xlink:href="#path-5"></use>
                        </mask>
                        <g id="Clip-46"></g>
                        <path d="M20.8536,16.4457 C10.1246,25.4527 7.5316,37.3937 12.5566,49.5187 L54.5566,14.2737 C43.9236,6.6807 31.2806,7.6987 20.8536,16.4457 M69.2546,14.0137 L18.4006,56.6957 C29.0546,66.2167 43.7766,65.7677 55.2356,56.1467 C58.3786,53.5137 61.3036,50.7987 63.5296,47.6577 L63.5296,61.2167 C62.7526,61.9127 61.9616,62.5867 61.1856,63.2357 C45.4466,76.4407 22.5236,76.8467 9.0596,60.7977 C-4.4994,44.6487 -1.3524,22.9977 14.8026,9.4467 C31.7906,-4.8113 54.8016,-0.6703 65.4706,12.0427 C66.6106,13.3997 68.0366,13.6177 69.2546,14.0137" id="Fill-45" fill="#000000" mask="url(#mask-6)"></path>
                    </g>
                    <polygon id="Fill-48" fill="#000000" points="816.6827 5.0947 813.7407 5.0947 813.7407 4.0337 820.9037 4.0337 820.9037 5.0947 817.9467 5.0947 817.9467 13.7067 816.6827 13.7067"></polygon>
                    <path d="M830.132,9.4579 C830.059,8.1089 829.973,6.4879 829.987,5.2819 L829.946,5.2819 C829.615,6.4159 829.214,7.6359 828.725,8.9569 L827.019,13.6489 L826.07,13.6489 L824.504,9.0419 C824.046,7.6789 823.66,6.4299 823.386,5.2819 L823.356,5.2819 C823.329,6.4879 823.255,8.1089 823.17,9.5589 L822.913,13.7069 L821.721,13.7069 L822.397,4.0339 L823.987,4.0339 L825.641,8.7119 C826.041,9.9039 826.372,10.9649 826.614,11.9699 L826.658,11.9699 C826.903,10.9939 827.245,9.9319 827.677,8.7119 L829.401,4.0339 L830.994,4.0339 L831.596,13.7069 L830.374,13.7069 L830.132,9.4579 Z" id="Fill-50" fill="#000000"></path>
                </g>
            </g>
        </g>
    </g>
</svg>